<?xml version="1.0" encoding="UTF-8"?>
<svg width="700pt" height="700pt" version="1.1" viewBox="0 0 700 700" xmlns="http://www.w3.org/2000/svg">
 <g>
  <path d="m349.98 304.54c-8.5391 0-15.488 6.9297-15.488 15.488v182.21c0 8.5391 6.9297 15.488 15.488 15.488 8.5742 0 15.523-6.9297 15.523-15.488l-0.003906-182.21c0-8.5391-6.9453-15.488-15.52-15.488z"/>
  <path d="m239.42 352.19c-16.469 8.4336-71.504 39.621-64.906 76.965 7.7539 43.891 50.242 107.29 50.242 107.29l45.465-80.797c-4.9531-13.125-11.008-30.012-15.523-45.535-4.1484-14.316-9.2422-33.25-15.277-57.926z"/>
  <path d="m460.55 352.19c-6.0547 24.676-11.113 43.609-15.242 57.941-4.5156 15.523-10.57 32.41-15.523 45.535l45.465 80.797s42.488-63.402 50.242-107.29c6.5977-37.359-48.422-68.547-64.941-76.98z"/>
  <path d="m349.98 23.555s-150.25 47.094-115.83 211.1c37.363 177.91 53.426 208.5 53.426 208.5h26.285v-123.11c0-19.934 16.238-36.121 36.121-36.121 19.934 0 36.156 16.203 36.156 36.121v123.11h26.25s16.102-30.59 53.461-208.5c34.422-164.01-115.87-211.1-115.87-211.1zm0 209.82c-30.52 0-55.266-24.781-55.266-55.301 0-30.555 24.746-55.266 55.266-55.266 30.555 0 55.301 24.711 55.301 55.266-0.003906 30.523-24.746 55.301-55.301 55.301z"/>
 </g>
</svg>
